HIERARCHY
ROOT Hips
{
	OFFSET 0.000000 71.427986 0.000000
	CHANNELS 6 Xposition Yposition Zposition Xrotation Yrotation Zrotation
	JOINT Pelvis
	{
		OFFSET 0.000000 0.000000 0.000000
		CHANNELS 3 Xrotation Yrotation Zrotation
		JOINT LeftUpLeg
		{
			OFFSET 6.797100 -2.508499 -1.318700
			CHANNELS 3 Xrotation Yrotation Zrotation
			JOINT LeftLeg
			{
				OFFSET 0.069008 -29.241863 0.690200
				CHANNELS 3 Xrotation Yrotation Zrotation
				JOINT LeftFoot
				{
					OFFSET -0.069008 -29.568123 -0.266800
					CHANNELS 3 Xrotation Yrotation Zrotation
					JOINT LeftToeBase
					{
						OFFSET 3.145500 -8.631000 16.059900
						CHANNELS 3 Xrotation Yrotation Zrotation
						End Site
						{
							OFFSET 0.000000 18.501587 0.000000
						}
					}
				}
			}
			JOINT Left_ShortSleeve
			{
				OFFSET 0.265923 -10.480953 1.153800
				CHANNELS 3 Xrotation Yrotation Zrotation
				End Site
				{
					OFFSET 1.725763 19.823879 0.000000
				}
			}
		}
		JOINT RightUpLeg
		{
			OFFSET -6.797100 -2.508499 -1.318700
			CHANNELS 3 Xrotation Yrotation Zrotation
			JOINT RightLeg
			{
				OFFSET -0.082453 -29.241932 0.688000
				CHANNELS 3 Xrotation Yrotation Zrotation
				JOINT RightFoot
				{
					OFFSET 0.082453 -29.568058 -0.264600
					CHANNELS 3 Xrotation Yrotation Zrotation
					JOINT RightToeBase
					{
						OFFSET -3.115300 -8.682800 16.113400
						CHANNELS 3 Xrotation Yrotation Zrotation
						End Site
						{
							OFFSET 0.000000 18.567114 0.000000
						}
					}
				}
			}
			JOINT Right_ShortSleeve
			{
				OFFSET -0.265923 -10.480953 1.153800
				CHANNELS 3 Xrotation Yrotation Zrotation
				End Site
				{
					OFFSET -1.725766 19.823910 0.000000
				}
			}
		}
	}
	JOINT Spine
	{
		OFFSET 0.000000 13.368103 0.470500
		CHANNELS 3 Xrotation Yrotation Zrotation
		JOINT Spine1
		{
			OFFSET 0.147000 13.837402 0.538800
			CHANNELS 3 Xrotation Yrotation Zrotation
			JOINT Spine2
			{
				OFFSET 0.168000 16.242897 -1.435500
				CHANNELS 3 Xrotation Yrotation Zrotation
				JOINT Neck
				{
					OFFSET 0.217200 18.631500 -1.679100
					CHANNELS 3 Xrotation Yrotation Zrotation
					JOINT Head
					{
						OFFSET 0.000000 6.599396 1.385900
						CHANNELS 3 Xrotation Yrotation Zrotation
						JOINT Hat
						{
							OFFSET -0.532200 27.220596 -10.096100
							CHANNELS 3 Xrotation Yrotation Zrotation
							End Site
							{
								OFFSET 0.000000 22.029861 0.000000
							}
						}
						JOINT HairD
						{
							OFFSET -10.777400 17.437393 -1.325900
							CHANNELS 3 Xrotation Yrotation Zrotation
							JOINT HairD1
							{
								OFFSET -3.290299 -11.051193 1.062200
								CHANNELS 3 Xrotation Yrotation Zrotation
								End Site
								{
									OFFSET 0.000000 11.579437 0.000000
								}
							}
						}
						JOINT HairB
						{
							OFFSET -10.777400 17.437393 1.467900
							CHANNELS 3 Xrotation Yrotation Zrotation
							JOINT HairB1
							{
								OFFSET -1.561200 -12.956299 3.590200
								CHANNELS 3 Xrotation Yrotation Zrotation
								End Site
								{
									OFFSET 0.000000 13.534866 0.000000
								}
							}
						}
						JOINT HairA
						{
							OFFSET 9.713100 17.437393 1.467900
							CHANNELS 3 Xrotation Yrotation Zrotation
							JOINT HairA1
							{
								OFFSET 1.561200 -12.956299 3.590200
								CHANNELS 3 Xrotation Yrotation Zrotation
								End Site
								{
									OFFSET 0.000000 13.534866 0.000000
								}
							}
						}
						JOINT HairC
						{
							OFFSET 9.713100 17.437393 -1.325900
							CHANNELS 3 Xrotation Yrotation Zrotation
							JOINT HairC1
							{
								OFFSET 3.290300 -11.051193 1.062200
								CHANNELS 3 Xrotation Yrotation Zrotation
								End Site
								{
									OFFSET 0.000000 11.579437 0.000000
								}
							}
						}
					}
				}
				JOINT LeftShoulder
				{
					OFFSET 5.101800 15.108002 -2.763700
					CHANNELS 3 Xrotation Yrotation Zrotation
					JOINT LeftArm
					{
						OFFSET 9.825497 2.506317 -1.597400
						CHANNELS 3 Xrotation Yrotation Zrotation
						JOINT LeftForeArm
						{
							OFFSET 21.966244 0.000000 0.000000
							CHANNELS 3 Xrotation Yrotation Zrotation
							JOINT LeftHand
							{
								OFFSET 33.879036 0.000000 0.000000
								CHANNELS 3 Xrotation Yrotation Zrotation
								JOINT LeftHandThumb1
								{
									OFFSET 6.715286 -2.359680 3.363841
									CHANNELS 3 Xrotation Yrotation Zrotation
									JOINT LeftHandThumb2
									{
										OFFSET 2.507072 -1.447464 1.447461
										CHANNELS 3 Xrotation Yrotation Zrotation
										JOINT LeftHandThumb3
										{
											OFFSET 2.898338 -1.673355 1.673357
											CHANNELS 3 Xrotation Yrotation Zrotation
											End Site
											{
												OFFSET -0.295959 3.727692 -0.131651
											}
										}
									}
								}
								JOINT LeftHandIndex1
								{
									OFFSET 14.190811 -0.254547 3.840278
									CHANNELS 3 Xrotation Yrotation Zrotation
									JOINT LeftHandIndex2
									{
										OFFSET 3.551727 0.000000 -0.000000
										CHANNELS 3 Xrotation Yrotation Zrotation
										JOINT LeftHandIndex3
										{
											OFFSET 2.894196 0.000000 0.000000
											CHANNELS 3 Xrotation Yrotation Zrotation
											End Site
											{
												OFFSET -1.000603 2.690872 0.366626
											}
										}
									}
								}
								JOINT LeftHandMiddle1
								{
									OFFSET 13.776489 0.000000 0.000000
									CHANNELS 3 Xrotation Yrotation Zrotation
									JOINT LeftHandMiddle2
									{
										OFFSET 3.438232 0.000000 0.000000
										CHANNELS 3 Xrotation Yrotation Zrotation
										JOINT LeftHandMiddle3
										{
											OFFSET 3.691551 0.000000 0.000000
											CHANNELS 3 Xrotation Yrotation Zrotation
											End Site
											{
												OFFSET -1.082298 3.499527 0.457670
											}
										}
									}
								}
								JOINT LeftHandRing1
								{
									OFFSET 13.966164 -0.268127 -3.067488
									CHANNELS 3 Xrotation Yrotation Zrotation
									JOINT LeftHandRing2
									{
										OFFSET 3.162567 0.000000 0.000000
										CHANNELS 3 Xrotation Yrotation Zrotation
										JOINT LeftHandRing3
										{
											OFFSET 3.324348 0.000000 0.000000
											CHANNELS 3 Xrotation Yrotation Zrotation
											End Site
											{
												OFFSET -0.861900 3.184998 0.405154
											}
										}
									}
								}
								JOINT LeftHandPinky1
								{
									OFFSET 13.131393 -0.168503 -5.746925
									CHANNELS 3 Xrotation Yrotation Zrotation
									JOINT LeftHandPinky2
									{
										OFFSET 2.849182 0.000000 0.000000
										CHANNELS 3 Xrotation Yrotation Zrotation
										JOINT LeftHandPinky3
										{
											OFFSET 2.805038 0.000000 0.000000
											CHANNELS 3 Xrotation Yrotation Zrotation
											End Site
											{
												OFFSET -0.882500 2.642609 0.325652
											}
										}
									}
								}
							}
							JOINT Left_Sleeve
							{
								OFFSET 6.592125 -0.646545 0.805568
								CHANNELS 3 Xrotation Yrotation Zrotation
								End Site
								{
									OFFSET -0.000179 20.275787 -0.000000
								}
							}
						}
					}
				}
				JOINT RightShoulder
				{
					OFFSET -5.731700 15.108002 -2.763700
					CHANNELS 3 Xrotation Yrotation Zrotation
					JOINT RightArm
					{
						OFFSET -9.825497 2.506317 -1.597400
						CHANNELS 3 Xrotation Yrotation Zrotation
						JOINT RightForeArm
						{
							OFFSET -21.966242 0.000000 0.000000
							CHANNELS 3 Xrotation Yrotation Zrotation
							JOINT RightHand
							{
								OFFSET -33.879032 0.000000 0.000000
								CHANNELS 3 Xrotation Yrotation Zrotation
								JOINT RightHandThumb1
								{
									OFFSET -6.715286 -2.359680 3.363841
									CHANNELS 3 Xrotation Yrotation Zrotation
									JOINT RightHandThumb2
									{
										OFFSET -2.507072 -1.447464 1.447461
										CHANNELS 3 Xrotation Yrotation Zrotation
										JOINT RightHandThumb3
										{
											OFFSET -2.898338 -1.673355 1.673357
											CHANNELS 3 Xrotation Yrotation Zrotation
											End Site
											{
												OFFSET 0.295959 3.727692 -0.131651
											}
										}
									}
								}
								JOINT RightHandIndex1
								{
									OFFSET -14.190811 -0.254547 3.840278
									CHANNELS 3 Xrotation Yrotation Zrotation
									JOINT RightHandIndex2
									{
										OFFSET -3.551727 0.000000 -0.000000
										CHANNELS 3 Xrotation Yrotation Zrotation
										JOINT RightHandIndex3
										{
											OFFSET -2.894196 0.000000 0.000000
											CHANNELS 3 Xrotation Yrotation Zrotation
											End Site
											{
												OFFSET 1.000603 2.690872 0.366626
											}
										}
									}
								}
								JOINT RightHandMiddle1
								{
									OFFSET -13.776489 0.000000 0.000000
									CHANNELS 3 Xrotation Yrotation Zrotation
									JOINT RightHandMiddle2
									{
										OFFSET -3.438232 0.000000 0.000000
										CHANNELS 3 Xrotation Yrotation Zrotation
										JOINT RightHandMiddle3
										{
											OFFSET -3.691551 0.000000 0.000000
											CHANNELS 3 Xrotation Yrotation Zrotation
											End Site
											{
												OFFSET 1.082298 3.499527 0.457670
											}
										}
									}
								}
								JOINT RightHandRing1
								{
									OFFSET -13.966164 -0.268127 -3.067488
									CHANNELS 3 Xrotation Yrotation Zrotation
									JOINT RightHandRing2
									{
										OFFSET -3.162567 0.000000 0.000000
										CHANNELS 3 Xrotation Yrotation Zrotation
										JOINT RightHandRing3
										{
											OFFSET -3.324348 0.000000 0.000000
											CHANNELS 3 Xrotation Yrotation Zrotation
											End Site
											{
												OFFSET 0.861900 3.184998 0.405154
											}
										}
									}
								}
								JOINT RightHandPinky1
								{
									OFFSET -13.131393 -0.168503 -5.746925
									CHANNELS 3 Xrotation Yrotation Zrotation
									JOINT RightHandPinky2
									{
										OFFSET -2.849182 0.000000 0.000000
										CHANNELS 3 Xrotation Yrotation Zrotation
										JOINT RightHandPinky3
										{
											OFFSET -2.805038 0.000000 0.000000
											CHANNELS 3 Xrotation Yrotation Zrotation
											End Site
											{
												OFFSET 0.882500 2.642609 0.325652
											}
										}
									}
								}
							}
							JOINT Right_Sleeve
							{
								OFFSET -6.592125 -0.646545 0.805568
								CHANNELS 3 Xrotation Yrotation Zrotation
								End Site
								{
									OFFSET 0.000179 20.275787 -0.000000
								}
							}
						}
					}
				}
				JOINT Bind_Right_JacketString
				{
					OFFSET -3.534800 11.969597 7.200700
					CHANNELS 3 Xrotation Yrotation Zrotation
					JOINT Bind_Right_JacketString1
					{
						OFFSET -0.319900 -6.102600 2.794100
						CHANNELS 3 Xrotation Yrotation Zrotation
						End Site
						{
							OFFSET 0.000000 6.719452 0.000000
						}
					}
				}
				JOINT Bind_Left_JacketString
				{
					OFFSET 2.904800 11.969597 7.200700
					CHANNELS 3 Xrotation Yrotation Zrotation
					JOINT Bind_Left_JacketString1
					{
						OFFSET 0.364800 -5.904503 3.186800
						CHANNELS 3 Xrotation Yrotation Zrotation
						End Site
						{
							OFFSET 0.000000 6.719513 0.000000
						}
					}
				}
				JOINT HairE
				{
					OFFSET 5.915200 17.612701 -11.592200
					CHANNELS 3 Xrotation Yrotation Zrotation
					JOINT HairE1
					{
						OFFSET 0.289200 -7.171898 -1.284500
						CHANNELS 3 Xrotation Yrotation Zrotation
						End Site
						{
							OFFSET 0.000000 7.291756 0.000000
						}
					}
				}
				JOINT HairF
				{
					OFFSET -0.864800 17.612701 -11.592200
					CHANNELS 3 Xrotation Yrotation Zrotation
					JOINT HairF1
					{
						OFFSET 0.000000 -14.087097 -2.127501
						CHANNELS 3 Xrotation Yrotation Zrotation
						End Site
						{
							OFFSET 0.000000 14.246841 0.000000
						}
					}
				}
				JOINT HairG
				{
					OFFSET -8.087700 17.612701 -11.592200
					CHANNELS 3 Xrotation Yrotation Zrotation
					JOINT HairG1
					{
						OFFSET -0.293600 -6.081398 -0.910100
						CHANNELS 3 Xrotation Yrotation Zrotation
						End Site
						{
							OFFSET 0.000000 6.156120 0.000000
						}
					}
				}
			}
		}
	}
	JOINT Pouch
	{
		OFFSET 0.000000 4.394501 10.847300
		CHANNELS 3 Xrotation Yrotation Zrotation
		End Site
		{
			OFFSET 0.000000 21.880577 0.000000
		}
	}
	JOINT Bag
	{
		OFFSET -13.229000 4.813004 -0.593300
		CHANNELS 3 Xrotation Yrotation Zrotation
		End Site
		{
			OFFSET 0.000000 21.880577 0.000000
		}
	}
	JOINT OccupyGuyFacialAnim_Joint
	{
		OFFSET 1.000000 -70.206398 -1.655000
		CHANNELS 3 Xrotation Yrotation Zrotation
		End Site
		{
			OFFSET 0.000000 21.880577 0.000000
		}
	}
}
MOTION
Frames: 4
Frame Time: 0.033333
-2.440294 63.693283 84.689438 -30.879739 85.615533 32.790393 -0.000000 0.000000 0.000000 -25.889434 -1.707131 10.889355 51.705020 -33.886737 20.711367 -26.435863 1.267012 -5.455325 0.000000 -0.000004 0.000001 0.000001 0.000000 -0.000000 -47.659124 -38.909979 -58.317555 55.130340 -19.073691 4.741995 -11.414707 -0.738455 9.081789 0.000000 -0.000000 0.000001 0.000001 0.000000 -0.000000 2.155029 6.306172 -2.514153 4.603780 12.120415 -5.282002 4.603789 12.120528 -5.282010 -16.066123 -28.970353 -2.268538 16.008527 -39.317779 4.512830 0.000000 0.000003 0.000000 0.000000 0.000003 0.000000 0.000000 0.000003 0.000000 0.000000 0.000003 0.000000 0.000000 0.000003 0.000000 0.000000 0.000003 0.000000 0.000000 0.000003 0.000000 0.000000 0.000003 0.000000 0.000000 0.000003 0.000000 -1.404390 -9.472766 12.358346 -75.108571 -1.953351 -68.659971 2.714205 -62.609052 -12.956114 -22.668594 -44.681923 14.255185 4.306731 -1.558812 -5.137246 15.732325 12.674838 8.828570 0.000000 -0.000000 0.000002 -6.960781 -3.007041 -34.030096 0.003483 -4.389304 -57.820481 0.000000 0.000000 -0.000000 -7.086248 1.132329 -51.618526 -0.063080 -4.895883 -71.831891 0.000001 0.000000 -0.000001 -4.446734 3.923165 -59.141331 -1.091429 -0.672434 -59.020846 -0.000002 0.000000 -0.000002 -8.837217 8.274752 -56.386647 -0.020133 -0.050854 -45.639881 -0.000001 -0.000001 0.000003 0.000000 -0.000004 0.000001 9.118489 33.074942 -16.387649 -95.371168 49.769003 61.964296 209.363261 120.239115 -208.136764 -33.191916 -17.853843 4.977958 24.918330 -21.323376 30.343044 9.041925 8.262093 -18.001802 -0.000000 -0.000001 0.000000 -0.070693 -3.035217 61.424205 0.006466 4.395176 66.609180 0.000000 -0.000001 -0.000002 -1.235406 -0.119478 68.274277 -0.077312 4.902852 84.501898 0.000002 0.000003 0.000007 0.883146 -4.613438 79.192943 -0.717775 1.136467 73.255773 0.000002 -0.000002 0.000002 -3.944537 0.099989 86.764760 -0.029793 0.060116 54.415140 0.000003 0.000002 -0.000003 0.000001 -0.000003 0.000001 0.000000 -0.000000 0.000000 0.000001 -0.000000 0.000000 0.000000 -0.000000 0.000001 0.000000 -0.000000 0.000001 0.000000 -0.000000 0.000000 0.000001 -0.000000 0.000000 0.000000 -0.000000 0.000001 0.000000 -0.000000 0.000001 0.000000 -0.000000 0.000000 0.000001 -0.000000 0.000000 -0.000000 0.000000 0.000000 -0.000000 0.000000 0.000000 -0.000000 0.000000 0.000000 
-2.086874 64.105370 87.737122 -22.618052 82.874257 22.257708 0.000000 -0.000000 0.000000 -24.632842 1.055046 16.799871 51.153155 -31.287351 19.533342 -27.940497 -0.311887 0.234794 -0.000001 -0.000003 -0.000000 0.000001 0.000000 0.000000 -43.395685 -42.667983 -52.702132 54.437895 -17.441317 4.674138 -14.825096 -1.338557 9.385943 -0.000000 -0.000000 0.000000 0.000001 0.000002 -0.000001 1.518777 5.889630 -2.670284 3.353202 11.555817 -5.676604 3.353221 11.555991 -5.676632 -17.267552 -28.421489 -2.857653 19.021643 -35.869275 6.896885 -0.000000 -0.000001 -0.000000 -0.000000 -0.000001 -0.000000 -0.000000 -0.000001 0.000000 -0.000000 -0.000001 -0.000000 -0.000000 -0.000001 0.000000 -0.000000 -0.000001 -0.000000 -0.000000 -0.000001 0.000000 -0.000000 -0.000001 -0.000000 -0.000000 -0.000001 -0.000000 -1.205333 -8.745165 13.678863 -85.486388 -13.851534 -65.460178 -2.472608 -68.904758 -9.777519 -19.093975 -40.092090 21.363556 4.306728 -1.558813 -5.137245 15.732315 12.674841 8.828564 0.000001 0.000001 -0.000001 -6.960780 -3.007049 -34.030086 0.003486 -4.389297 -57.820502 0.000003 -0.000000 0.000003 -7.086268 1.132324 -51.618499 -0.063076 -4.895879 -71.831904 0.000002 0.000001 0.000003 -4.446724 3.923159 -59.141317 -1.091430 -0.672413 -59.020833 -0.000001 0.000000 -0.000001 -8.837219 8.274750 -56.386657 -0.020133 -0.050855 -45.639884 0.000001 -0.000001 0.000003 -0.000002 0.000001 -0.000001 8.455055 31.458455 -19.669150 -109.957802 41.887030 66.104333 235.899270 119.029311 -233.286477 -31.532832 -23.139764 8.696790 24.918335 -21.323396 30.343040 9.041922 8.262091 -18.001800 0.000000 -0.000001 0.000002 -0.070695 -3.035236 61.424192 0.006469 4.395174 66.609173 0.000000 0.000003 0.000003 -1.235412 -0.119498 68.274264 -0.077315 4.902855 84.501898 -0.000002 -0.000000 -0.000001 0.883146 -4.613445 79.192936 -0.717792 1.136478 73.255766 0.000000 0.000000 0.000003 -3.944536 0.099987 86.764760 -0.029818 0.060140 54.415157 -0.000002 -0.000001 0.000000 0.000000 0.000002 0.000001 -0.000000 -0.000001 0.000001 0.000000 -0.000001 -0.000000 -0.000000 -0.000001 0.000001 -0.000000 -0.000001 0.000001 -0.000000 -0.000001 0.000001 0.000000 -0.000001 0.000000 -0.000000 -0.000001 0.000001 -0.000000 -0.000001 0.000001 -0.000000 -0.000001 0.000001 0.000000 -0.000001 0.000000 0.000000 -0.000000 0.000000 0.000000 -0.000000 0.000000 0.000000 -0.000000 0.000000 
-1.834465 64.607246 90.574341 -18.767364 77.666006 16.805221 -0.000000 0.000000 0.000000 -20.956031 3.568769 20.667857 47.426433 -22.786408 18.280757 -26.468484 0.038749 -0.399585 0.000000 0.000000 -0.000003 -0.000001 -0.000000 0.000001 -37.216919 -43.867132 -45.272802 53.087116 -15.970077 4.260396 -17.475355 -1.607057 9.147916 0.000000 0.000000 -0.000000 -0.000002 -0.000001 -0.000000 0.848279 5.441010 -2.661682 1.994061 10.838203 -5.681000 1.994230 10.839864 -5.681205 -18.381880 -27.785104 -3.372113 19.742165 -31.538993 8.507978 -0.000000 0.000001 0.000000 -0.000000 0.000001 0.000000 -0.000000 0.000001 0.000000 -0.000000 0.000001 0.000000 0.000000 -0.000001 0.000000 -0.000000 0.000001 0.000000 0.000000 -0.000001 0.000000 -0.000000 0.000001 0.000000 -0.000000 0.000001 0.000000 -0.890609 -8.032992 16.083847 -92.630021 -24.930059 -61.573862 -11.332179 -71.425897 -9.922282 -10.778716 -35.804719 27.762398 4.306727 -1.558814 -5.137244 15.732313 12.674827 8.828582 0.000002 0.000003 -0.000002 -6.960796 -3.007068 -34.030089 0.003468 -4.389282 -57.820516 -0.000001 0.000001 -0.000002 -7.086251 1.132315 -51.618502 -0.063092 -4.895877 -71.831897 0.000000 -0.000001 -0.000001 -4.446743 3.923160 -59.141331 -1.091434 -0.672428 -59.020846 -0.000001 0.000001 -0.000002 -8.837220 8.274750 -56.386661 -0.020132 -0.050852 -45.639884 0.000000 0.000001 0.000001 0.000000 -0.000001 -0.000000 7.426311 29.967397 -22.232221 -119.135493 32.786817 65.919856 257.875541 117.562213 -252.704869 -31.265942 -22.168716 9.814735 24.918333 -21.323390 30.343027 9.041921 8.262091 -18.001804 -0.000001 -0.000001 0.000002 -0.070697 -3.035235 61.424205 0.006466 4.395175 66.609173 0.000002 -0.000001 0.000000 -1.235407 -0.119483 68.274257 -0.077315 4.902851 84.501898 0.000001 -0.000001 0.000001 0.883153 -4.613438 79.192922 -0.717765 1.136466 73.255773 -0.000003 0.000000 -0.000003 -3.944535 0.099988 86.764754 -0.029779 0.060113 54.415137 -0.000003 0.000001 -0.000001 -0.000001 0.000002 -0.000002 0.000000 -0.000001 0.000002 0.000001 0.000001 -0.000000 0.000000 -0.000001 -0.000000 0.000000 -0.000001 -0.000000 0.000000 -0.000001 0.000002 0.000001 0.000001 -0.000000 0.000000 -0.000001 -0.000000 0.000000 -0.000001 -0.000000 0.000000 -0.000001 0.000002 0.000001 0.000001 -0.000000 -0.000000 0.000000 0.000000 -0.000000 0.000000 0.000000 -0.000000 0.000000 0.000000 
-1.661209 64.937057 93.079132 -16.287500 72.269672 13.966443 0.000000 0.000000 -0.000000 -19.676254 0.982086 17.622272 48.036659 -3.305336 21.731878 -16.377551 1.701265 -9.115445 -0.000000 -0.000001 0.000001 0.000002 0.000000 0.000001 -32.909965 -43.049122 -39.795691 52.671478 -14.700304 3.588303 -19.980832 -1.490205 8.590230 0.000000 -0.000000 0.000000 -0.000003 -0.000000 -0.000000 0.168793 5.016712 -2.611005 0.617929 10.113264 -5.604791 0.618171 10.115661 -5.605089 -19.368171 -27.103075 -3.738545 18.826049 -28.488921 9.876498 0.000000 -0.000001 -0.000000 0.000000 -0.000001 -0.000000 0.000000 -0.000001 -0.000001 0.000000 -0.000001 -0.000000 0.000001 -0.000001 -0.000000 0.000000 -0.000001 -0.000000 0.000001 -0.000001 -0.000000 0.000000 -0.000001 -0.000000 0.000000 -0.000001 -0.000000 -0.555156 -7.364815 18.087319 -97.746291 -35.959078 -56.424217 -17.403138 -68.848901 -6.925846 -2.985398 -34.812521 30.312564 4.306728 -1.558816 -5.137245 15.732328 12.674826 8.828569 -0.000000 -0.000002 0.000000 -6.960786 -3.007061 -34.030079 0.003482 -4.389300 -57.820509 -0.000000 0.000001 -0.000002 -7.086233 1.132312 -51.618519 -0.063076 -4.895887 -71.831891 0.000003 0.000001 0.000001 -4.446750 3.923156 -59.141317 -1.091433 -0.672430 -59.020860 0.000000 0.000000 0.000002 -8.837222 8.274748 -56.386668 -0.020129 -0.050855 -45.639884 0.000000 -0.000001 -0.000001 0.000004 0.000001 0.000001 6.538057 28.181400 -25.087666 -126.126669 22.999451 63.052297 276.679926 117.555602 -266.386721 -33.819777 -15.399290 6.819976 24.918328 -21.323393 30.343030 9.041922 8.262095 -18.001799 -0.000002 -0.000002 0.000004 -0.070702 -3.035204 61.424205 0.006468 4.395172 66.609180 0.000002 0.000001 0.000004 -1.235401 -0.119471 68.274264 -0.077317 4.902855 84.501891 0.000002 -0.000000 -0.000001 0.883155 -4.613430 79.192915 -0.717785 1.136486 73.255753 -0.000003 0.000002 -0.000001 -3.944532 0.099991 86.764760 -0.029788 0.060127 54.415144 -0.000001 0.000001 0.000001 -0.000000 -0.000000 -0.000002 -0.000000 -0.000000 0.000001 0.000000 -0.000000 -0.000001 -0.000000 -0.000000 0.000001 -0.000000 -0.000000 0.000001 -0.000000 -0.000000 0.000001 0.000000 -0.000000 -0.000000 -0.000000 -0.000000 0.000001 -0.000000 -0.000000 0.000001 -0.000000 -0.000000 0.000001 0.000000 -0.000000 -0.000000 0.000000 0.000000 -0.000000 0.000000 0.000000 -0.000000 0.000000 0.000000 -0.000000 
